<svg xmlns="http://www.w3.org/2000/svg" width="14.328" height="16.375" viewBox="0 0 14.328 16.375"><defs><style>.a{fill:#a2a2a2;}</style></defs><path class="a" d="M8.571-5.07h.768a.384.384,0,0,0,.384-.384v-6.908a.384.384,0,0,0-.384-.384H8.571a.384.384,0,0,0-.384.384v6.908A.384.384,0,0,0,8.571-5.07Zm5.245-10.746H11.181L10.093-17.63a1.7,1.7,0,0,0-1.316-.745H5.552a1.7,1.7,0,0,0-1.316.745L3.147-15.816H.512A.512.512,0,0,0,0-15.3v.512a.512.512,0,0,0,.512.512h.512V-3.535A1.536,1.536,0,0,0,2.559-2H11.77A1.536,1.536,0,0,0,13.3-3.535V-14.281h.512a.512.512,0,0,0,.512-.512V-15.3A.512.512,0,0,0,13.816-15.816ZM5.5-16.747a.213.213,0,0,1,.165-.093H8.667a.213.213,0,0,1,.165.093l.558.93H4.938ZM11.77-3.535H2.559V-14.281H11.77ZM4.989-5.07h.768a.384.384,0,0,0,.384-.384v-6.908a.384.384,0,0,0-.384-.384H4.989a.384.384,0,0,0-.384.384v6.908A.384.384,0,0,0,4.989-5.07Z" transform="translate(0 18.375)"/></svg>