<svg xmlns="http://www.w3.org/2000/svg" width="16" height="16" viewBox="0 0 16 16"><defs><style>.a{fill:#a2a2a2;}</style></defs><path class="a" d="M15.363-11.7,13.68-13.382a2.108,2.108,0,0,0-2.983,0L.778-3.528.01,1.128a.75.75,0,0,0,.862.862l4.656-.768L15.382-8.7A2.11,2.11,0,0,0,15.363-11.7ZM3.77-4.562,9.091-9.849l2.758,2.758L6.563-1.77V-3.062h-1.5v-1.5ZM2.567.317,1.683-.567l.379-2.3.575-.571h1.3v1.5h1.5v1.3l-.571.575ZM14.41-9.669l0,0,0,0-1.5,1.511-2.751-2.751,1.511-1.5,0,0,0,0a.733.733,0,0,1,1.039,0l1.683,1.683A.735.735,0,0,1,14.41-9.669Z" transform="translate(0 14)"/></svg>